<?xml version="1.0" encoding="utf-8"?>
<!-- Generator: Adobe Illustrator 18.1.1, SVG Export Plug-In . SVG Version: 6.00 Build 0)  -->
<!DOCTYPE svg PUBLIC "-//W3C//DTD SVG 1.1//EN" "http://www.w3.org/Graphics/SVG/1.1/DTD/svg11.dtd">
<svg version="1.1" id="Layer_1" xmlns="http://www.w3.org/2000/svg" xmlns:xlink="http://www.w3.org/1999/xlink" x="0px" y="0px"
	 viewBox="670 192 594 550" enable-background="new 670 192 594 550" xml:space="preserve">
<g>
	<path fill="#BC9D6D" d="M1110.3,492.2L1110.3,492.2c26.5-8.2,54.4-19,80.9-33c42.8-24.7,64.4,0.8,48.7,39.5
		c-14,36.3-85,105.5-147.5,120.4c-23.9-16.5-70.9-28.1-125.3-28.9c-54.4,0-101.5,11.6-125.3,28.9C779,603.5,707.2,535,694.1,497.9
		c-15.7-38.7,5.7-64.4,48.7-39.5c26.5,14.9,54.4,25.5,80.9,33c56.9,17.3,109.6,21.4,136.9,21.4h14.5
		C1003.1,513.8,1054.3,508.7,1110.3,492.2z"/>
	<g id="XMLID_1_">
		<path fill="#BC9D6D" d="M1032.9,319c22.2,11.6,58.5,115.5,72.5,159.1c-53.6,15.7-103.1,19.8-129.4,19.8h-14.9
			c-26.5,0-76.6-4.1-132.8-19.8c14-42.8,50.3-147.5,72.5-159.1c25.5-12.4,47.9,8.2,65.2,10.8h-3.3c1.6,0,2.5,0,4.1,0
			c1.6,0,3.3,0,4.1,0h-3.3C985.8,327.4,1007.2,305.9,1032.9,319z M1024.6,400.7c0-4.9-4.1-8.2-8.2-8.2c-4.1,0-7.4,3.3-8.2,7.4
			l-25.5-4.1l-12.4-23c3.3-1.6,4.9-4.1,4.9-7.4c0-4.9-4.1-8.2-8.2-8.2c-4.9,0-8.2,4.1-8.2,8.2c0,3.3,2.5,6.5,4.9,7.4l-11.6,23
			l-26.5,4.1c-0.8-4.1-4.1-7.4-8.2-7.4c-4.9,0-8.2,4.1-8.2,8.2c0,4.9,4.1,8.2,8.2,8.2c2.5,0,5.7-1.6,6.5-3.3l18.1,18.1l-4.9,27.3
			c-0.8-0.8-2.5-0.8-3.3-0.8c-4.9,0-8.2,4.1-8.2,8.2c0,4.9,4.1,8.2,8.2,8.2c4.9,0,8.2-4.1,8.2-8.2c0-1.6-0.8-3.3-1.6-4.9l24.7-13.2
			l24.7,13.2c-0.8,1.6-1.6,3.3-1.6,4.9c0,4.9,4.1,8.2,8.2,8.2c4.9,0,8.2-4.1,8.2-8.2c0-4.9-4.1-8.2-8.2-8.2c-0.8,0-2.5,0-3.3,0.8
			l-4.9-27.3l18.1-18.1c1.6,2.5,4.1,3.3,6.5,3.3C1020.5,409,1024.6,404.8,1024.6,400.7z"/>
	</g>
</g>
</svg>
