<?xml version="1.0" encoding="utf-8"?>
<!-- Generator: Adobe Illustrator 18.1.1, SVG Export Plug-In . SVG Version: 6.00 Build 0)  -->
<!DOCTYPE svg PUBLIC "-//W3C//DTD SVG 1.1//EN" "http://www.w3.org/Graphics/SVG/1.1/DTD/svg11.dtd">
<svg version="1.1" id="Layer_1" xmlns="http://www.w3.org/2000/svg" xmlns:xlink="http://www.w3.org/1999/xlink" x="0px" y="0px"
	 viewBox="0 0 612 792" style="enable-background:new 0 0 612 792;" xml:space="preserve">
<style type="text/css">
	.st0{fill:#BC9D6D;}
</style>
<g>
	<path class="st0" d="M411.2,414.1L411.2,414.1c19.4-6,39.9-13.9,59.3-24.2c31.4-18.1,47.2,0.6,35.7,29
		c-10.3,26.6-62.3,77.4-108.2,88.3c-17.5-12.1-52-20.6-91.9-21.2c-39.9,0-74.4,8.5-91.9,21.2c-46-11.5-98.6-61.7-108.2-88.9
		c-11.5-28.4,4.2-47.2,35.7-29c19.4,10.9,39.9,18.7,59.3,24.2c41.7,12.7,80.4,15.7,100.4,15.7H312
		C332.6,429.9,370.1,426.2,411.2,414.1z"/>
	<g id="XMLID_1_">
		<path class="st0" d="M354.4,287.1c16.3,8.5,42.9,84.7,53.2,116.7c-39.3,11.5-75.6,14.5-94.9,14.5h-10.9c-19.4,0-56.2-3-97.4-14.5
			c10.3-31.4,36.9-108.2,53.2-116.7c18.7-9.1,35.1,6,47.8,7.9H303c1.2,0,1.8,0,3,0c1.2,0,2.4,0,3,0h-2.4
			C319.9,293.2,335.6,277.5,354.4,287.1z M348.3,347c0-3.6-3-6-6-6s-5.4,2.4-6,5.4l-18.7-3l-9.1-16.9c2.4-1.2,3.6-3,3.6-5.4
			c0-3.6-3-6-6-6c-3.6,0-6,3-6,6c0,2.4,1.8,4.8,3.6,5.4l-8.5,16.9l-19.4,3c-0.6-3-3-5.4-6-5.4c-3.6,0-6,3-6,6c0,3.6,3,6,6,6
			c1.8,0,4.2-1.2,4.8-2.4l13.3,13.3l-3.6,20c-0.6-0.6-1.8-0.6-2.4-0.6c-3.6,0-6,3-6,6c0,3.6,3,6,6,6c3.6,0,6-3,6-6
			c0-1.2-0.6-2.4-1.2-3.6l18.1-9.7l18.1,9.7c-0.6,1.2-1.2,2.4-1.2,3.6c0,3.6,3,6,6,6c3.6,0,6-3,6-6c0-3.6-3-6-6-6
			c-0.6,0-1.8,0-2.4,0.6l-3.6-20l13.3-13.3c1.2,1.8,3,2.4,4.8,2.4C345.3,353.1,348.3,350,348.3,347z"/>
	</g>
</g>
</svg>
