<?xml version="1.0" encoding="utf-8"?>
<!-- Generator: Adobe Illustrator 18.1.1, SVG Export Plug-In . SVG Version: 6.00 Build 0)  -->
<!DOCTYPE svg PUBLIC "-//W3C//DTD SVG 1.1//EN" "http://www.w3.org/Graphics/SVG/1.1/DTD/svg11.dtd">
<svg version="1.1" id="Layer_1" xmlns="http://www.w3.org/2000/svg" xmlns:xlink="http://www.w3.org/1999/xlink" x="0px" y="0px"
	 viewBox="0 0 612 792" style="enable-background:new 0 0 612 792;" xml:space="preserve">
<style type="text/css">
	.st0{fill:#BC9D6D;}
</style>
<g id="Your_Icon">
	<path class="st0" d="M161.3,558.6c4.7,1.1,9.1-1.7,10.2-6.5c-0.6,5,2.3,9.3,7,10.4c5,0.6,9.3-2.3,10.4-7c0.8-5.5,3-18.3,4.2-23
		c0,0,0,0,0.6,0.2c31.5,5.5,69.1-15.2,80.9-65c4.9-21.4,1-43.6-10.7-62.3c-8.1-12.8-19.2-22.8-32.1-29.6c1.4-2,2.1-3.7,2.4-6.2
		c1.6-5.9,0.5-11.5-2.8-16.6c-3.2-5.1-7.9-8.2-13.8-9.7c-10.6-2.7-21.4,3.5-25.2,13.7c-0.4,1.1-0.6,1.7-1.1,2.8
		c-0.3,2.5-0.4,4.4-0.7,6.9c-2.5-0.3-4.6,0.2-7.3,0.5l-4.3-15.9c5.9-3.6,11.1-8.7,13.6-15.5c1.3-3.4,2-7,1.9-10.3l0.9-39.8
		c0.2-3.8-0.5-7.3-1.7-11l22.6-15.3c0.6,0.2,1.1,0.4,1.5,1.2c7.5,4.1,15.3,5.8,23.8,3.8l38.5-9.3c10.1-2.7,18-10,21.7-19.6l0,0
		l18.3,1.1c2.2,7.9,8,14.7,15.5,18.8l35.3,17.9c7.5,4.1,15.7,4.7,23.8,1.9l7.4,11.2c-2.2,2.4-3.3,5.2-4.6,8.6
		c-1.5,4-2.4,8.1-2.2,12.7l1.8,39.5c0.7,11.9,7.9,21.8,17.7,26.7l-1.7,12.9c-27.3-1.3-55.2,10.8-72,34.8c-5.5,7.6-9.6,15.1-12.6,23
		c-12.6,33.4-2.4,64.4,18.5,80.8c0,0,0,0,0.6,0.2c-2.8,4.1-10.7,14.7-14.4,19.1c-2.8,4.1-2.3,9.5,1.8,12.3s9.5,2.3,12.3-1.8l0,0
		c-0.2,0.6-0.4,1.1-0.6,1.7c-1.3,3.4-0.3,7.6,3.2,10.3c4.1,2.8,9.5,2.3,12.3-1.8c1.2-1.5,11.3-14.5,14.6-19.7c0,0,0,0,0.6,0.2
		c27.3,16.8,70,11.7,99.2-29.6c22.3-31.6,18.7-73.1-5.1-100.9c1.8-1.3,3.5-2.5,5-4.6c1.2-1.5,1.9-3.2,2.5-4.9
		c3.6-9.6,0.4-19.9-7.8-25.6c-9.7-6.9-23.6-4.4-30.5,5.3c-1.2,1.5-1.9,3.2-2.5,4.9c-0.2,0.6-0.2,0.6-0.4,1.1c-2.3-0.9-4.5-1.7-7-2
		l1.7-12.9c11.5-1.4,20.8-8.9,24.9-19.7c1.5-4,2.4-8.1,2.2-12.7L458,305c-0.6-17.1-15.6-30.5-32.7-29.8c-2.7,0.3-5.4,0.5-8.3,1.4
		l-7-10.4c1.4-2,2.6-3.5,3.5-5.8c7.9-15.8,2-34.2-13.8-42.1l-35.3-17.9c-7.5-4.1-15.7-4.7-23.8-1.9c-8.1,2.7-14.7,8-18.2,15.7
		c-0.4,1.1-0.9,2.3-1.3,3.4c-0.2,0.6-0.6,1.7-0.9,2.3l-17-1.3l0.2-0.6c-2.2-7.9-7.2-15-14.2-18.9c-7.5-4.1-15.5-5.2-23.8-3.8
		l-38.5,9.3c-10.1,2.7-18,10-21.7,19.6c-2.4,6.2-2.8,12.5-1.1,18.3c0.1,1.3,0.8,2.9,1.5,4.5l-21.9,15c-5.6-4.1-11.8-6.4-18.9-6.5
		c-13.4-0.5-25,8-29.7,20.4c-1.3,3.4-2,7-1.9,10.3l-0.9,39.8c-0.5,16.6,12.9,30.8,29.9,32l4.3,15.9c-22.3,7.7-41.4,25.7-50.2,48.9
		c-1.3,3.4-2.6,6.8-3.5,11c-11.1,46.2,14.5,81.2,45.3,90.3c0,0,0,0,0.6,0.2c-1,6.1-4,22.4-4.6,24.1
		C153.1,552.9,156.6,557.4,161.3,558.6z M463.1,504.8c-17.1,24.6-48.6,41.1-75.5,25.1c-8.4-5.1-18-3.6-23.3,3.5
		c4.7-7.3,2.6-17.1-4.8-23.2c-24.3-19.6-20-54.8-2.3-79.1c20.1-29.2,61-36.4,90-15.7C476.6,434.9,484,475.2,463.1,504.8z
		 M456.4,394.3c1.2-1.5,3.5-2.5,5.6-1.1c1.5,1.2,2.2,2.8,1.5,4.5c-0.2,0.6-0.2,0.6-0.4,1.1c-1.2,1.5-3.5,2.5-5.6,1.1l0,0l0,0
		C456.1,398.7,455.8,396,456.4,394.3z M441,303.7l1.8,39.5c-0.1,1.9-0.2,3.8-0.8,5.5c-1.1,2.8-3.3,5.2-5.8,6.8l1.5-12.4
		c0.6-5-2.9-9.5-7.8-10.1c-4.4-0.4-7.9,2.2-9.2,5.6c-0.2,0.6-0.4,1.1-0.9,2.3l-1.4,10.5c-1.3-1.8-2.3-4.1-2.6-6.8l-1.8-39.5
		c0.4-1.1,0.6-1.7,0.5-3l5.2,8.4c2.9,4.3,8.4,5.1,12.5,2.8c4.3-2.9,5.1-8.4,2.8-12.5l-6.7-9.7C435.4,291.3,441.1,296.7,441,303.7z
		 M347.3,213.2c3.7-1.2,6.7-0.7,10.1,0.6l35.3,17.9c5.4,2.7,8.2,8.9,6.7,14.8l-3.6-5.9c-2.9-4.3-8.4-5.1-12.5-2.8
		c-1.8,1.3-3,2.7-3.6,4.4c-1.1,2.8-0.8,5.5,0.8,8.1l4.2,6.1c-1.3,0.1-3-0.5-4-1.5l-35.3-17.9c-0.6-0.2-1.7-0.6-2-1.4l6.9,0.7
		c5,0.6,9.1-3.6,9.7-8.6s-3.6-9.1-8.6-9.7l-10.7-0.8C342.4,215.9,344.4,214.1,347.3,213.2z M231.8,219.2l38.5-9.3
		c3.5-0.6,7.3-0.5,10.5,1.4c1.7,0.6,2.6,1.6,3.3,3.2l-6.9-0.7c-3.8-0.2-7.4,2.4-8.7,5.8c-0.2,0.6-0.6,1.7-0.3,2.5
		c-0.6,5,3.6,9.1,8.6,9.7l6.1,1c-1.8,1.3-3.5,2.5-5.9,3.6l-38.5,9.3c-0.8,0.4-2.1,0.5-2.7,0.3l6.9-4.5c3.8-3.1,4.8-9.2,1.7-12.9
		c-2.9-4.3-8.4-5.1-12.7-2.2l-10.4,7C221.1,226.8,225.4,220.7,231.8,219.2z M151,323.1l0.9-39.8c0.1-7.1,6.3-13.1,13.4-13
		c0.6,0.2,1.3-0.1,2.5,0.3l-6.3,4.7c-1.8,1.3-2.8,2.2-3.4,3.9c-1.1,2.8-0.8,5.5,0.8,8.1c2.9,4.3,8.4,5.1,12.7,2.2l7.1-5.1l-0.4,38.6
		c0.1,1.3-0.5,3-0.9,4.2s-0.9,2.3-1.9,3.2l-2.5-8.7c-1.3-5-6.2-7.5-11.2-6.2c-2.9,0.8-4.9,2.7-6,5.5c-0.6,1.7-0.7,3.6-0.2,5.7
		l1.8,7.2C153.3,332.4,151,328.3,151,323.1z M209.7,366.1c-0.4-0.8-0.7-1.6-0.3-2.7c0.3-2.5,2.6-3.5,4.3-2.9c1.1,0.4,2,1.4,2.6,1.6
		c0.4,0.8,0.7,1.6,0.3,2.7l-0.2,0.6c-0.6,1.7-2.4,3-4.7,2.1l0,0l0,0C211,367.9,210.1,366.9,209.7,366.1z M131,433.9
		c7.9-34.5,42.7-56.3,77.2-48.3c16.7,3.7,31,13.7,40.2,28.8c9.4,14.5,11.9,31.7,8,48.9c-8.8,38.7-37.1,55.1-60.3,51.5
		c-9.1-1.5-18.1,3.5-20.8,12.2c1.9-8.3-3.9-17-13.2-19.9C133.2,498.1,124.2,463.7,131,433.9z"/>
</g>
</svg>
