<?xml version="1.0" encoding="utf-8"?>
<!-- Generator: Adobe Illustrator 18.1.1, SVG Export Plug-In . SVG Version: 6.00 Build 0)  -->
<!DOCTYPE svg PUBLIC "-//W3C//DTD SVG 1.1//EN" "http://www.w3.org/Graphics/SVG/1.1/DTD/svg11.dtd">
<svg version="1.1" id="Layer_1" xmlns="http://www.w3.org/2000/svg" xmlns:xlink="http://www.w3.org/1999/xlink" x="0px" y="0px"
	 viewBox="0 0 101.2 96.2" style="enable-background:new 0 0 101.2 96.2;" xml:space="preserve">
<g id="Your_Icon">
	<path d="M84.5,61.2c-0.1-0.8-0.8-1.3-1.6-1.2c0.8-0.2,1.3-0.9,1.2-1.7c-0.2-0.8-0.9-1.3-1.7-1.2c-0.9,0.2-3,0.6-3.8,0.7
		c0,0,0,0,0-0.1c-1-5.2-6.4-9.8-14.8-8.7c-3.6,0.5-6.8,2.4-9,5.3c-1.5,2-2.4,4.3-2.7,6.7c-0.4-0.1-0.7-0.1-1.1,0
		c-1,0.1-1.8,0.6-2.4,1.4c-0.6,0.8-0.8,1.7-0.7,2.7c0.2,1.8,1.8,3.1,3.6,3.1c0.2,0,0.3,0,0.5,0c0.4-0.1,0.7-0.2,1.1-0.3
		c0.1,0.4,0.3,0.7,0.5,1.1l-2.2,1.6c-0.9-0.7-2-1.2-3.2-1.2c-0.6,0-1.2,0.1-1.7,0.3l-6.2,2.2c-0.6,0.2-1.1,0.5-1.6,0.9l-3.7-2.6
		c0-0.1,0-0.2,0.1-0.3c0.2-1.4,0-2.7-0.8-3.9l-3.7-5.4c-1-1.4-2.6-2.2-4.3-2.2c0,0,0,0,0,0l-0.9-2.9c1.1-0.8,1.8-2.1,2-3.5l0.7-6.5
		c0.2-1.4-0.2-2.7-1.1-3.8l1.3-1.8c0.5,0.2,1,0.2,1.6,0.2c0.7,0,1.4-0.1,2.1-0.4l6-2.6c1.8-0.8,2.9-2.5,3.1-4.3l2.1-0.5
		c1.4,4.3,4.9,7.9,9.6,9.1c1.5,0.4,2.9,0.6,4.3,0.6c5.9,0,10.1-3.4,11.4-7.6c0,0,0,0,0-0.1c0.8,0.2,2.9,0.8,3.8,1.1
		c0.8,0.2,1.6-0.2,1.8-1c0.2-0.8-0.2-1.6-1-1.8c0,0,0,0,0,0c0.1,0,0.2,0,0.3,0c0.6,0,1.2-0.4,1.4-1.1c0.2-0.8-0.2-1.6-1-1.8
		c-0.3-0.1-2.9-0.9-3.9-1.1c0,0,0,0,0-0.1c1-5.2-2.3-11.5-10.4-13.6c-6.2-1.6-12.4,1.4-15.3,6.7c-0.3-0.2-0.6-0.4-1-0.5
		c-0.3-0.1-0.6-0.1-0.9-0.1c-1.7,0-3.1,1.1-3.5,2.7c-0.5,1.9,0.7,3.9,2.6,4.4c0.3,0.1,0.6,0.1,0.9,0.1c0.1,0,0.1,0,0.2,0
		c0,0.4,0,0.8,0.1,1.2l-2.1,0.5c-0.9-1.7-2.6-2.7-4.5-2.7c-0.7,0-1.4,0.1-2.1,0.4l-6,2.6c-2.6,1.1-3.8,4.2-2.7,6.8
		c0.2,0.4,0.4,0.8,0.7,1.2l-1.2,1.7c-0.4-0.1-0.7-0.2-1.1-0.2c-2.9-0.3-5.4,1.7-5.7,4.6l-0.7,6.5c-0.2,1.4,0.2,2.7,1.1,3.8
		c0.9,1.1,2.1,1.8,3.5,1.9c0.2,0,0.4,0,0.6,0c0.1,0,0.3,0,0.4,0l0.8,2.7c0,0-0.1,0-0.1,0c-1.1,0.8-1.9,2-2.1,3.3
		c-0.2,1.4,0.1,2.7,0.8,3.9l3.7,5.4c1,1.4,2.6,2.2,4.3,2.2c1.1,0,2.1-0.3,2.9-0.9c0.2-0.1,0.4-0.3,0.6-0.5l3.6,2.5
		c-0.3,1.1-0.3,2.2,0.1,3.3c0.7,2.1,2.7,3.4,4.9,3.4c0.6,0,1.2-0.1,1.7-0.3l6.2-2.2c2.6-0.9,4-3.8,3.2-6.5l2.2-1.6
		c2.5,3,6.4,4.9,10.5,4.9c0.6,0,1.2,0,1.9-0.1C75.8,75,79.7,69,79.3,63.7c0,0,0,0,0-0.1c1-0.2,3.7-0.7,4-0.7
		C84.1,62.8,84.6,62,84.5,61.2z M58.5,17.7c4.8,1.2,9.2,5.1,8.3,10.2c-0.3,1.6,0.5,3,1.9,3.4c-1.4-0.3-2.8,0.6-3.3,2.1
		c-1.6,4.9-7.3,6.3-12.1,5c-5.7-1.4-9.2-7.3-7.7-13C46.9,19.7,52.7,16.2,58.5,17.7z M41.8,25.2c-0.3-0.1-0.6-0.4-0.5-0.8
		c0.1-0.3,0.3-0.5,0.6-0.5c0.1,0,0.1,0,0.2,0c0.3,0.1,0.6,0.4,0.5,0.8c0,0,0,0,0,0s0,0,0,0C42.5,25,42.1,25.2,41.8,25.2z M28.7,32.9
		l6-2.6c0.3-0.1,0.6-0.2,0.9-0.2c0.5,0,1,0.2,1.4,0.5l-2,0.5c-0.8,0.2-1.3,1-1.1,1.8c0.2,0.7,0.8,1.1,1.4,1.1c0.1,0,0.2,0,0.4,0
		l1.7-0.4c-0.2,0.3-0.5,0.6-0.9,0.8l-6,2.6C30.3,37,30.2,37,30,37.1l1-1.3c0.5-0.7,0.3-1.6-0.3-2.1c-0.7-0.5-1.6-0.3-2.1,0.3
		l-1.1,1.6C27.1,34.5,27.6,33.3,28.7,32.9z M20.2,52.7c-0.4-0.5-0.5-1-0.5-1.6l0.7-6.5c0.1-1,0.9-1.8,1.9-1.9l-0.7,0.9
		c-0.5,0.7-0.3,1.6,0.3,2.1c0.3,0.2,0.6,0.3,0.9,0.3c0.5,0,0.9-0.2,1.2-0.6l0.7-1c0.1,0.2,0.1,0.5,0,0.7l-0.7,6.5
		c0,0.1,0,0.3-0.1,0.4l-0.3-1.1c-0.2-0.8-1.1-1.2-1.9-1c-0.8,0.2-1.2,1.1-1,1.9l0.5,1.7C20.9,53.3,20.5,53.1,20.2,52.7z M27.9,70.2
		l-3.7-5.4c-0.3-0.5-0.5-1.1-0.4-1.7c0-0.3,0.1-0.5,0.3-0.7l0.3,1.1c0.2,0.6,0.8,1,1.4,1c0.1,0,0.3,0,0.4-0.1c0.8-0.2,1.2-1.1,1-1.9
		L27,61.5c0.3,0.2,0.6,0.4,0.9,0.7l3.7,5.4c0.1,0.1,0.2,0.3,0.2,0.4l-1.1-0.8C30,66.8,29,67,28.6,67.7c-0.5,0.7-0.3,1.6,0.4,2.1
		l1.7,1.2C29.7,71.4,28.5,71.1,27.9,70.2z M48.7,76.6l-6.2,2.2c-1.1,0.4-2.4-0.2-2.8-1.3c0-0.1-0.1-0.2-0.1-0.4l1.1,0.7
		c0.3,0.2,0.5,0.3,0.8,0.3c0.5,0,0.9-0.2,1.2-0.6c0.5-0.7,0.3-1.6-0.4-2.1l-1.2-0.8l6-2.2c0.2-0.1,0.5-0.1,0.7-0.1
		c0.2,0,0.4,0,0.6,0.1l-1.2,0.9c-0.7,0.5-0.8,1.4-0.3,2.1c0.3,0.4,0.7,0.6,1.2,0.6c0.3,0,0.6-0.1,0.9-0.3l1-0.7
		C50,75.7,49.5,76.3,48.7,76.6z M51.9,65c-0.1,0.1-0.2,0.2-0.4,0.2c-0.4,0.1-0.7-0.2-0.7-0.5c0-0.2,0.1-0.4,0.1-0.5
		c0.1-0.1,0.2-0.2,0.4-0.2c0,0,0.1,0,0.1,0c0.3,0,0.6,0.2,0.6,0.6c0,0,0,0,0,0c0,0,0,0,0,0C52.1,64.7,52,64.9,51.9,65z M67,73.2
		C61.2,74,55.8,69.9,55,64.1c-0.4-2.8,0.3-5.6,2.1-7.9c1.7-2.3,4.2-3.7,7.1-4.1c6.5-0.9,10.7,2.5,11.5,6.3c0.3,1.5,1.6,2.6,3.1,2.5
		c-1.4,0.2-2.4,1.6-2.3,3.2C76.8,69.1,72,72.5,67,73.2z"/>
</g>
<g>
</g>
<g>
</g>
<g>
</g>
<g>
</g>
<g>
</g>
<g>
</g>
</svg>
