<?xml version="1.0" encoding="utf-8"?>
<!-- Generator: Adobe Illustrator 18.1.1, SVG Export Plug-In . SVG Version: 6.00 Build 0)  -->
<!DOCTYPE svg PUBLIC "-//W3C//DTD SVG 1.1//EN" "http://www.w3.org/Graphics/SVG/1.1/DTD/svg11.dtd">
<svg version="1.1" id="Layer_1" xmlns="http://www.w3.org/2000/svg" xmlns:xlink="http://www.w3.org/1999/xlink" x="0px" y="0px"
	 viewBox="631.8 208.8 644.1 624.1" enable-background="new 631.8 208.8 644.1 624.1" xml:space="preserve">
<g id="Your_Icon">
	<path fill="#BC9D6D" d="M763.6,761.9c6.4,1.5,12.4-2.3,13.9-8.9c-0.8,6.8,3.1,12.7,9.5,14.2c6.8,0.8,12.7-3.1,14.2-9.5
		c1.1-7.5,4.1-25,5.7-31.4c0,0,0,0,0.8,0.3c43,7.5,94.2-20.7,110.3-88.6c6.7-29.2,1.4-59.5-14.6-85c-11-17.5-26.2-31.1-43.8-40.4
		c1.9-2.7,2.9-5,3.3-8.5c2.2-8,0.7-15.7-3.8-22.6c-4.4-7-10.8-11.2-18.8-13.2c-14.5-3.7-29.2,4.8-34.4,18.7
		c-0.5,1.5-0.8,2.3-1.5,3.8c-0.4,3.4-0.5,6-1,9.4c-3.4-0.4-6.3,0.3-10,0.7l-5.9-21.7c8-4.9,15.1-11.9,18.5-21.1
		c1.8-4.6,2.7-9.5,2.6-14l1.2-54.3c0.3-5.2-0.7-10-2.3-15l30.8-20.9c0.8,0.3,1.5,0.5,2,1.6c10.2,5.6,20.9,7.9,32.5,5.2l52.5-12.7
		c13.8-3.7,24.5-13.6,29.6-26.7l0,0l25,1.5c3,10.8,10.9,20,21.1,25.6l48.1,24.4c10.2,5.6,21.4,6.4,32.5,2.6l10.1,15.3
		c-3,3.3-4.5,7.1-6.3,11.7c-2,5.5-3.3,11-3,17.3l2.5,53.9c1,16.2,10.8,29.7,24.1,36.4l-2.3,17.6c-37.2-1.8-75.3,14.7-98.2,47.5
		c-7.5,10.4-13.1,20.6-17.2,31.4c-17.2,45.5-3.3,87.8,25.2,110.2c0,0,0,0,0.8,0.3c-3.8,5.6-14.6,20-19.6,26
		c-3.8,5.6-3.1,13,2.5,16.8c5.6,3.8,13,3.1,16.8-2.5l0,0c-0.3,0.8-0.5,1.5-0.8,2.3c-1.8,4.6-0.4,10.4,4.4,14
		c5.6,3.8,13,3.1,16.8-2.5c1.6-2,15.4-19.8,19.9-26.9c0,0,0,0,0.8,0.3c37.2,22.9,95.5,16,135.3-40.4c30.4-43.1,25.5-99.7-7-137.6
		c2.5-1.8,4.8-3.4,6.8-6.3c1.6-2,2.6-4.4,3.4-6.7c4.9-13.1,0.5-27.1-10.6-34.9c-13.2-9.4-32.2-6-41.6,7.2c-1.6,2-2.6,4.4-3.4,6.7
		c-0.3,0.8-0.3,0.8-0.5,1.5c-3.1-1.2-6.1-2.3-9.5-2.7l2.3-17.6c15.7-1.9,28.4-12.1,34-26.9c2-5.5,3.3-11,3-17.3l-2.2-53.6
		c-0.8-23.3-21.3-41.6-44.6-40.6c-3.7,0.4-7.4,0.7-11.3,1.9l-9.5-14.2c1.9-2.7,3.5-4.8,4.8-7.9c10.8-21.5,2.7-46.6-18.8-57.4
		l-48.1-24.4c-10.2-5.6-21.4-6.4-32.5-2.6c-11,3.7-20,10.9-24.8,21.4c-0.5,1.5-1.2,3.1-1.8,4.6c-0.3,0.8-0.8,2.3-1.2,3.1l-23.2-1.8
		l0.3-0.8c-3-10.8-9.8-20.5-19.4-25.8c-10.2-5.6-21.1-7.1-32.5-5.2L853,279.1c-13.8,3.7-24.5,13.6-29.6,26.7c-3.3,8.5-3.8,17-1.5,25
		c0.1,1.8,1.1,4,2,6.1l-29.9,20.5c-7.6-5.6-16.1-8.7-25.8-8.9c-18.3-0.7-34.1,10.9-40.5,27.8c-1.8,4.6-2.7,9.5-2.6,14l-1.2,54.3
		c-0.7,22.6,17.6,42,40.8,43.6l5.9,21.7c-30.4,10.5-56.5,35-68.5,66.7c-1.8,4.6-3.5,9.3-4.8,15c-15.1,63,19.8,110.7,61.8,123.1
		c0,0,0,0,0.8,0.3c-1.4,8.3-5.5,30.5-6.3,32.9C752.4,754.1,757.2,760.2,763.6,761.9z M1175.1,688.5c-23.3,33.5-66.3,56-103,34.2
		c-11.5-7-24.5-4.9-31.8,4.8c6.4-10,3.5-23.3-6.5-31.6c-33.1-26.7-27.3-74.7-3.1-107.9c27.4-39.8,83.2-49.6,122.7-21.4
		C1193.5,593.2,1203.6,648.1,1175.1,688.5z M1166,537.8c1.6-2,4.8-3.4,7.6-1.5c2,1.6,3,3.8,2,6.1c-0.3,0.8-0.3,0.8-0.5,1.5
		c-1.6,2-4.8,3.4-7.6,1.5l0,0l0,0C1165.6,543.8,1165.2,540.1,1166,537.8z M1145,414.3l2.5,53.9c-0.1,2.6-0.3,5.2-1.1,7.5
		c-1.5,3.8-4.5,7.1-7.9,9.3l2-16.9c0.8-6.8-4-13-10.6-13.8c-6-0.5-10.8,3-12.5,7.6c-0.3,0.8-0.5,1.5-1.2,3.1l-1.9,14.3
		c-1.8-2.5-3.1-5.6-3.5-9.3l-2.5-53.9c0.5-1.5,0.8-2.3,0.7-4.1l7.1,11.5c4,5.9,11.5,7,17,3.8c5.9-4,7-11.5,3.8-17l-9.1-13.2
		C1137.3,397.4,1145.1,404.7,1145,414.3z M1017.2,290.9c5-1.6,9.1-1,13.8,0.8l48.1,24.4c7.4,3.7,11.2,12.1,9.1,20.2l-4.9-8
		c-4-5.9-11.5-7-17-3.8c-2.5,1.8-4.1,3.7-4.9,6c-1.5,3.8-1.1,7.5,1.1,11l5.7,8.3c-1.8,0.1-4.1-0.7-5.5-2l-48.1-24.4
		c-0.8-0.3-2.3-0.8-2.7-1.9l9.4,1c6.8,0.8,12.4-4.9,13.2-11.7c0.8-6.8-4.9-12.4-11.7-13.2l-14.6-1.1
		C1010.5,294.5,1013.3,292.1,1017.2,290.9z M859.7,299l52.5-12.7c4.8-0.8,10-0.7,14.3,1.9c2.3,0.8,3.5,2.2,4.5,4.4l-9.4-1
		c-5.2-0.3-10.1,3.3-11.9,7.9c-0.3,0.8-0.8,2.3-0.4,3.4c-0.8,6.8,4.9,12.4,11.7,13.2l8.3,1.4c-2.5,1.8-4.8,3.4-8,4.9l-52.5,12.7
		c-1.1,0.5-2.9,0.7-3.7,0.4l9.4-6.1c5.2-4.2,6.5-12.5,2.3-17.6c-4-5.9-11.5-7-17.3-3l-14.2,9.5C845.1,309.4,851,301.1,859.7,299z
		 M749.5,440.7l1.2-54.3c0.1-9.7,8.6-17.9,18.3-17.7c0.8,0.3,1.8-0.1,3.4,0.4l-8.6,6.4c-2.5,1.8-3.8,3-4.6,5.3
		c-1.5,3.8-1.1,7.5,1.1,11c4,5.9,11.5,7,17.3,3l9.7-7l-0.5,52.6c0.1,1.8-0.7,4.1-1.2,5.7c-0.5,1.6-1.2,3.1-2.6,4.4l-3.4-11.9
		c-1.8-6.8-8.5-10.2-15.3-8.5c-4,1.1-6.7,3.7-8.2,7.5c-0.8,2.3-1,4.9-0.3,7.8l2.5,9.8C752.7,453.4,749.5,447.8,749.5,440.7z
		 M829.6,499.4c-0.5-1.1-1-2.2-0.4-3.7c0.4-3.4,3.5-4.8,5.9-4c1.5,0.5,2.7,1.9,3.5,2.2c0.5,1.1,1,2.2,0.4,3.7l-0.3,0.8
		c-0.8,2.3-3.3,4.1-6.4,2.9l0,0l0,0C831.3,501.8,830.1,500.4,829.6,499.4z M722.3,591.8c10.8-47,58.2-76.8,105.3-65.9
		c22.8,5,42.3,18.7,54.8,39.3c12.8,19.8,16.2,43.2,10.9,66.7c-12,52.8-50.6,75.1-82.2,70.2c-12.4-2-24.7,4.8-28.4,16.6
		c2.6-11.3-5.3-23.2-18-27.1C725.3,679.4,713,632.4,722.3,591.8z"/>
</g>
</svg>
